<svg width="24" height="24" viewBox="0 0 24 24" fill="none" xmlns="http://www.w3.org/2000/svg">
<g id="facebook">
<path id="facebook_2" d="M23.9999 1.32474V22.6756C23.9999 23.4072 23.4069 24.0002 22.6754 24.0003H16.5595V14.7062H19.6792L20.1463 11.0841H16.5595V8.7715C16.5595 7.7228 16.8507 7.00815 18.3546 7.00815L20.2726 7.00727V3.7677C19.3442 3.66933 18.4112 3.62169 17.4777 3.62499C14.7123 3.62499 12.8191 5.31299 12.8191 8.41286V11.0841H9.69146V14.7062H12.8191V24.0003H1.32456C0.973242 24.0003 0.636305 23.8607 0.387885 23.6123C0.139466 23.3639 -8.48928e-05 23.027 -6.102e-05 22.6756V1.32474C-0.000114078 0.973415 0.139427 0.636462 0.387853 0.388036C0.636279 0.13961 0.973232 6.90277e-05 1.32456 0.000122085H22.6754C23.0267 0.000122085 23.3636 0.139681 23.612 0.388097C23.8604 0.636513 24 0.973436 23.9999 1.32474Z" fill="#262626"/>
</g>
</svg>
