<svg width="16" height="16" viewBox="0 0 16 16" fill="none" xmlns="http://www.w3.org/2000/svg">
<g id="thumbs-up">
<path id="Rectangle_9_copy" fill-rule="evenodd" clip-rule="evenodd" d="M3.39556 7.10739C5.33333 4.40864 6.02086 3.63942 5.90612 2.07721C5.79138 0.515006 6.1196 0.0854529 6.90037 0.00853097C7.68115 -0.068391 9.14717 0.334369 9.40453 2.89138C9.51561 3.99767 8.68044 6.17568 8.68044 6.17568L14.5244 6.17871C15.3518 6.17871 16 6.51362 16 7.58102C16 8.58101 14.8311 8.88178 14.8311 8.88178C15.2946 9.07914 15.5889 9.51885 15.579 9.99931C15.5818 10.6772 15.0051 11.2301 14.288 11.237C14.7786 11.4233 15.0587 11.9138 14.9545 12.4038C14.8656 12.991 14.3849 13.4562 13.766 13.5541C14.1713 13.8252 14.3388 14.3165 14.1774 14.7603C13.915 15.3463 13.2225 15.9923 11.6669 15.9923H4.39987C3.96738 16.0441 3.54771 15.831 3.35442 15.4616V7.43409C3.35141 7.32389 3.36526 7.21385 3.39556 7.10739ZM0 6.59141H2.84289V15.9906H0V6.59141Z" fill="white"/>
</g>
</svg>
